<svg xmlns="http://www.w3.org/2000/svg" viewBox="0 0 70.37 69.85"><defs><style>.cls-1{fill:#fed700;}</style></defs><g id="Layer_2" data-name="Layer 2"><g id="Layer_1-2" data-name="Layer 1"><path class="cls-1" d="M70.37,59.81a2.67,2.67,0,0,1-1.84,1.27c-1.79.46-3.55,1-5.33,1.51A1.08,1.08,0,0,1,61.74,62c-.19-.62.14-1.15.89-1.37,1.3-.39,2.62-.76,4.05-1.17-.27-.18-.42-.3-.59-.39q-5.52-3.06-11-6.14a1,1,0,0,0-1.12,0c-1.61,1-3.25,1.86-4.9,2.76a.88.88,0,0,0-.54.9A13.31,13.31,0,0,1,22,58.31a4.58,4.58,0,0,1-.11-1.09,1.66,1.66,0,0,0-1.14-1.94c-1.5-.74-2.91-1.63-4.38-2.42a1,1,0,0,0-.86-.06Q9.7,56,3.93,59.23a1.47,1.47,0,0,0-.2.18l2.76.81c.48.14,1,.25,1.44.42A1,1,0,0,1,8.63,62a1.05,1.05,0,0,1-1.32.68c-2-.56-4-1.13-6.06-1.74A1.63,1.63,0,0,1,.08,58.75q.81-2.94,1.67-5.87c.23-.77.72-1.08,1.36-.9s.85.74.64,1.5C3.39,54.79,3,56.1,2.61,57.55l3.72-2.07c2.68-1.49,5.35-3,8-4.46A1,1,0,0,0,15,50c0-6.89,0-13.79,0-20.68A1.83,1.83,0,0,1,16,27.48c2.3-1.27,4.59-2.57,6.88-3.86l.36-.2a1.05,1.05,0,1,1,1,1.82c-1.35.77-2.71,1.52-4.07,2.28l-2.4,1.36.6.39,16.18,9a.89.89,0,0,0,1,.07l16.54-9.22c.1-.05.18-.12.35-.23l-1.1-.64c-5.21-2.91-10.43-5.8-15.64-8.72a1,1,0,0,0-1.18,0c-2.06,1.18-4.14,2.33-6.23,3.47-.29.16-.69.39-.94.3a1.64,1.64,0,0,1-.89-.79c-.23-.49.07-.92.55-1.18q2-1.12,4-2.23c.86-.48,1.73-.94,2.57-1.46A1,1,0,0,0,34.1,17c0-4.39,0-8.79,0-13.19,0-.08,0-.16-.06-.46L31.48,6c-.18.18-.35.36-.54.52a1.06,1.06,0,0,1-1.44,0,1,1,0,0,1-.05-1.42c.45-.51.95-1,1.44-1.47,1-1,2-2,3-3a1.69,1.69,0,0,1,2.66,0c1.42,1.4,2.82,2.81,4.22,4.23.58.58.61,1.16.14,1.63a1.09,1.09,0,0,1-1.63-.16c-1-1-1.88-1.91-2.94-3,0,.42,0,.63,0,.85,0,4.15,0,8.29,0,12.44a1.12,1.12,0,0,0,.67,1.16c5.67,3.13,11.3,6.31,17,9.42a2.51,2.51,0,0,1,1.52,2.6c-.09,2.7,0,5.4,0,8.11A1,1,0,0,1,54,39a1.11,1.11,0,0,1-.66-1.17c0-2.26,0-4.53,0-6.89l-.66.32q-7.9,4.41-15.82,8.8a1,1,0,0,0-.6,1c0,.68,0,1.36,0,2.08,6.27.91,10.26,4.4,12,10.51,1.62-.9,3.21-1.78,4.78-2.69.16-.09.24-.42.24-.64,0-2.29,0-4.58,0-6.87,0-.18,0-.37,0-.55,0-.74.42-1.18,1.06-1.15a1,1,0,0,1,1,1.15c0,2.33,0,4.67,0,7A1.07,1.07,0,0,0,56,51c3.68,2,7.35,4.08,11,6.13l.7.35c-.4-1.4-.76-2.69-1.12-4-.22-.82,0-1.39.64-1.55s1.13.15,1.37,1c.53,1.8,1,3.6,1.56,5.4a1.87,1.87,0,0,0,.17.35ZM35.18,45.27A11.25,11.25,0,1,0,46.42,56.49,11.29,11.29,0,0,0,35.18,45.27ZM22.1,53.66c1.76-6.12,5.75-9.6,12-10.51,0-.69,0-1.36,0-2A1.05,1.05,0,0,0,33.47,40q-7.86-4.35-15.7-8.73c-.21-.12-.43-.22-.65-.34a.55.55,0,0,0-.05.15q0,9.67,0,19.37a.78.78,0,0,0,.35.57C19,51.92,20.49,52.77,22.1,53.66Z"/><path class="cls-1" d="M35.71,56.46c0-1,0-2,0-3A1.35,1.35,0,0,1,37.2,52c.69,0,1.37,0,2.06,0a3.31,3.31,0,0,1,3.36,2.84,11.87,11.87,0,0,1,0,3.47,3.3,3.3,0,0,1-3.25,2.81q-1.09,0-2.19,0a1.34,1.34,0,0,1-1.46-1.45C35.69,58.57,35.71,57.51,35.71,56.46ZM37.82,59h1.3a1.38,1.38,0,0,0,1.48-1.38,21.11,21.11,0,0,0,0-2.25,1.24,1.24,0,0,0-1.05-1.26,10,10,0,0,0-1.73,0Z"/><path class="cls-1" d="M31.9,59V57.92c0-.08,0-.17,0-.34-1,0-2,0-2.95,0a1.14,1.14,0,0,1-1.27-1,1.1,1.1,0,0,1,1.19-1.14c1,0,2,0,3,0V54H29c-.84,0-1.33-.4-1.33-1.06s.49-1,1.28-1c1,0,2.11,0,3.16,0A1.76,1.76,0,0,1,34,53.76q.07,2.75,0,5.49a1.76,1.76,0,0,1-1.91,1.82c-1.09,0-2.19,0-3.29,0a1.05,1.05,0,1,1,0-2.09C29.82,59,30.82,59,31.9,59Z"/></g></g></svg>