<svg xmlns="http://www.w3.org/2000/svg" viewBox="0 0 68.46 68.49"><defs><style>.cls-1{fill:#fed700;}</style></defs><g id="Layer_2" data-name="Layer 2"><g id="Layer_1-2" data-name="Layer 1"><path class="cls-1" d="M36.64,0l3.69.54A5,5,0,0,1,41,.67,1.35,1.35,0,0,1,42.1,2.28a1.4,1.4,0,0,1-1.64,1c-.88-.13-1.76-.28-2.64-.4A29.46,29.46,0,0,0,24.7,4.17,31.09,31.09,0,0,0,5.36,21.59,30.13,30.13,0,0,0,2.77,36.28,31.42,31.42,0,0,0,9,53.07l.4.51a5.73,5.73,0,0,1,4.9-.2A5.42,5.42,0,0,1,17,56a5.63,5.63,0,1,1-9.78-.42C6.12,53.7,4.91,52,3.93,50.1A33.58,33.58,0,0,1,.12,31.33,34.23,34.23,0,0,1,22.79,1.94,32.27,32.27,0,0,1,31.25.13c.19,0,.38-.09.58-.13ZM15,58.54a2.94,2.94,0,1,0-2.93,3A3,3,0,0,0,15,58.54Z"/><path class="cls-1" d="M68.46,36.63c-.17,1.21-.29,2.43-.53,3.62C65.21,53.46,57.44,62.33,44.75,66.79a32.78,32.78,0,0,1-16.88,1.09c-.94-.17-1.45-.66-1.48-1.37a1.43,1.43,0,0,1,1.74-1.36,58.25,58.25,0,0,0,6.71.59A31.49,31.49,0,0,0,65,41.25a31.1,31.1,0,0,0-5.49-25.93c-.1-.14-.22-.27-.36-.45a5.78,5.78,0,0,1-5,.15,5.55,5.55,0,0,1-2.7-2.58,5.63,5.63,0,1,1,9.81.45c1.15,1.87,2.35,3.64,3.35,5.51a32.56,32.56,0,0,1,3.78,13c0,.19.08.39.12.58ZM56.4,12.84a2.94,2.94,0,1,0-2.91-3A3,3,0,0,0,56.4,12.84Z"/><path class="cls-1" d="M44.94,52.66c-1.72.67-3.27,1.26-4.81,1.89a.71.71,0,0,0-.36.51c0,.69,0,1.38,0,2.07a1.31,1.31,0,0,1-1.48,1.42c-2.7,0-5.39,0-8.09,0a1.3,1.3,0,0,1-1.46-1.44c0-.67,0-1.34,0-2a.71.71,0,0,0-.32-.55c-1.56-.64-3.13-1.23-4.87-1.9-.41.44-.93,1-1.48,1.56a1.36,1.36,0,0,1-2.2,0L14.2,48.61a1.36,1.36,0,0,1,0-2.2c.55-.55,1.13-1.07,1.56-1.47-.67-1.75-1.26-3.33-1.9-4.89a.76.76,0,0,0-.55-.31c-.67,0-1.34,0-2,0A1.31,1.31,0,0,1,9.9,38.25c0-2.69,0-5.39,0-8.08a1.32,1.32,0,0,1,1.43-1.48q1,0,2,0c.35,0,.48-.13.6-.46.54-1.38,1.11-2.75,1.72-4.11.15-.35.15-.55-.13-.8-.48-.44-.93-.9-1.38-1.37a1.33,1.33,0,0,1,0-2.06Q17,17,19.92,14.13a1.31,1.31,0,0,1,2,0c.49.46.93,1,1.44,1.4a.79.79,0,0,0,.66.09c1.41-.56,2.79-1.16,4.19-1.71.33-.13.47-.26.46-.61,0-.67,0-1.34,0-2A1.3,1.3,0,0,1,30.2,9.9h8.09a1.31,1.31,0,0,1,1.46,1.44c0,.64,0,1.29,0,1.93,0,.37.11.52.47.66,1.39.54,2.76,1.11,4.12,1.71a.58.58,0,0,0,.8-.13c.43-.48.9-.93,1.37-1.38a1.31,1.31,0,0,1,2.05,0Q51.47,17,54.33,19.9a1.32,1.32,0,0,1,0,2c-.46.49-.94,1-1.42,1.41a.56.56,0,0,0-.14.75c.61,1.37,1.19,2.77,1.74,4.18a.55.55,0,0,0,.62.43c.62,0,1.25,0,1.87,0,1.08,0,1.55.49,1.55,1.56v8c0,1-.47,1.5-1.52,1.53-.62,0-1.24,0-1.87,0-.36,0-.52.1-.66.47C54,41.6,53.36,43,52.81,44.38a.77.77,0,0,0,.1.66c.43.5.94,1,1.4,1.43a1.32,1.32,0,0,1,0,2.06q-2.88,2.92-5.81,5.81a1.29,1.29,0,0,1-2,0C46,53.78,45.42,53.16,44.94,52.66ZM55.87,31.4h-2a1.44,1.44,0,0,1-1.65-1.31,19.09,19.09,0,0,0-2.39-5.75,1.35,1.35,0,0,1,.25-2c.47-.47,1-.92,1.42-1.34L47.4,17c-.42.45-.86.95-1.34,1.42a1.37,1.37,0,0,1-2,.23,19.62,19.62,0,0,0-5.83-2.42,1.36,1.36,0,0,1-1.2-1.51c0-.68,0-1.36,0-2.07H31.41v2a1.42,1.42,0,0,1-1.29,1.65,19.43,19.43,0,0,0-5.76,2.4,1.38,1.38,0,0,1-2-.25c-.47-.48-.9-1-1.31-1.42L17,21.05c.45.43,1,.89,1.44,1.38a1.32,1.32,0,0,1,.21,1.87,19.47,19.47,0,0,0-2.43,5.82,1.43,1.43,0,0,1-1.66,1.28h-2V37h2c1,0,1.46.31,1.69,1.32a19.17,19.17,0,0,0,2.37,5.7,1.34,1.34,0,0,1-.21,2c-.49.48-1,.92-1.44,1.3l4.1,4.1c.4-.41.84-.89,1.3-1.34a1.39,1.39,0,0,1,2.08-.23,18.46,18.46,0,0,0,5.64,2.32,1.46,1.46,0,0,1,1.33,1.7v1.95h5.64c0-.67,0-1.29,0-1.92a1.47,1.47,0,0,1,1.36-1.73A18.21,18.21,0,0,0,44,49.87a1.41,1.41,0,0,1,2.13.24c.47.46.92.94,1.3,1.34l4.12-4.08c-.24-.2-.53-.41-.79-.65s-.52-.5-.76-.76a1.31,1.31,0,0,1-.2-1.81,19.71,19.71,0,0,0,2.45-5.88c.23-.93.65-1.22,1.63-1.23h2Z"/><path class="cls-1" d="M47.87,3.75A1.33,1.33,0,0,1,46.5,5.07a1.37,1.37,0,0,1-1.29-1.41,1.32,1.32,0,0,1,1.35-1.27A1.28,1.28,0,0,1,47.87,3.75Z"/><path class="cls-1" d="M22,63.39a1.37,1.37,0,0,1,1.31,1.4,1.32,1.32,0,0,1-1.39,1.29,1.36,1.36,0,0,1-1.3-1.34A1.43,1.43,0,0,1,22,63.39Z"/><path class="cls-1" d="M34.24,23.15A11.07,11.07,0,1,1,23.16,34.2,11.14,11.14,0,0,1,34.24,23.15Zm8.34,11.07a8.35,8.35,0,1,0-8.36,8.35A8.32,8.32,0,0,0,42.58,34.22Z"/></g></g></svg>