<svg xmlns="http://www.w3.org/2000/svg" viewBox="0 0 70.36 70.36"><defs><style>.cls-1{fill:#fed700;}</style></defs><g id="Layer_2" data-name="Layer 2"><g id="Layer_1-2" data-name="Layer 1"><path class="cls-1" d="M70.36,56.35c-.17.44-.3.9-.51,1.33a4.94,4.94,0,0,1-9.37-2.13q0-12.15,0-24.3a1.93,1.93,0,0,1,.31-1c1.24-2,2.52-3.92,3.79-5.88.54-.83,1.08-.83,1.62,0q2.08,3.15,4.16,6.3ZM62,31.75V51.16h6.81V31.75Zm0,21c0,1-.05,2,0,2.89a3.45,3.45,0,0,0,3.29,3.26,3.31,3.31,0,0,0,3.45-2.8,22,22,0,0,0,0-3.35Zm.68-22.66h5.49L65.4,25.91Z"/><path class="cls-1" d="M60.19,0c.22.61.47,1.21.67,1.83a.88.88,0,0,0,1.31.55c1.87-1.16,1.59-1,3,.44s1.42,1.41.48,3.19a.93.93,0,0,0,.52,1.25h.07c2.17.41,1.84.57,1.85,2.38,0,2.31.25,2.19-1.93,2.68a.88.88,0,0,0-.51,1.23l0,.06c1.12,1.79,1.11,1.48-.43,3a1.85,1.85,0,0,0-.14.14c-1.53,1.54-1.26,1.42-2.94.41a.86.86,0,0,0-1.38.59c-.49,1.87-.21,1.75-2.26,1.74H57a.83.83,0,0,1-.92-.73c-.07-.34-.16-.66-.25-1a.87.87,0,0,0-1.43-.58c-1.62,1-1.45,1-2.78-.34L50.68,16c-.67-.67-.68-.81-.18-1.65l.39-.65a.88.88,0,0,0-.55-1.4c-2-.43-1.8-.39-1.81-2.35V9.29c0-1.6,0-1.6,1.58-2,1-.23,1.22-.75.7-1.59-.88-1.43-1-1.33.31-2.57.36-.35.73-.69,1.06-1.07a1,1,0,0,1,1.56-.16,7.34,7.34,0,0,0,.71.42.89.89,0,0,0,1.39-.56c.18-.6.42-1.18.64-1.77Zm-1,1.54H57.48c-.27,1-.34,1.83-1.55,2.35S54,3.82,53,3.26a4.89,4.89,0,0,1-.65.78.69.69,0,0,0-.14,1.09,2.31,2.31,0,0,1,.52,1.22,2.57,2.57,0,0,1-2.06,2.4c-.49.09-.67.29-.61.77a2.44,2.44,0,0,1,0,.54c0,.41.07.65.53.69a1.76,1.76,0,0,1,1.8,1.53c0,.16.19.29.19.44a2.4,2.4,0,0,1-.06,1.14c-.61,1.19-.64,1.18.31,2.09l.27.25c.87-.48,1.56-1.07,2.79-.55s1.26,1.46,1.57,2.34h1.72c.26-1,.36-1.83,1.56-2.33a2.58,2.58,0,0,1,2.66.49l1.31-1.24a12.55,12.55,0,0,1-.65-1.09c-.1-.21-.23-.52-.15-.7.44-1,.52-2.3,2.08-2.33.85,0,.53-.72.59-1.18s0-.8-.61-.85a1.64,1.64,0,0,1-1.7-1.45,1.25,1.25,0,0,0-.2-.44,1.1,1.1,0,0,1,.07-1.27c.66-1.07.65-1.08-.28-2a3.39,3.39,0,0,0-.34-.28c-.84.47-1.52,1.07-2.73.56S59.47,2.51,59.2,1.54Z"/><path class="cls-1" d="M13.88,0c.22.59.47,1.16.66,1.76a.88.88,0,0,0,1.38.59c1.7-1,1.51-1,2.89.37l.1.09c1.42,1.42,1.42,1.42.47,3.2a1,1,0,0,0,.46,1.23l.13,0c2.18.42,1.85.57,1.85,2.38,0,2.29.28,2.19-1.93,2.68a.88.88,0,0,0-.51,1.23.21.21,0,0,0,0,.06c1.11,1.78,1.09,1.51-.39,3-.47.47-.94,1.14-1.49,1.24s-1.17-.44-1.75-.71a.89.89,0,0,0-1.24.54c-.53,2.13-.26,1.85-2.5,1.87H12c-2.19,0-2,.29-2.5-1.87a.88.88,0,0,0-1.23-.55.41.41,0,0,0-.11.07c-1.74,1.1-1.52,1-2.94-.4l-.68-.68c-.87-.87-.87-.91-.22-2l.22-.35c.47-.78.25-1.35-.63-1.55-1.67-.39-1.69-.29-1.67-2.12,0-.52,0-1,0-1.58a.9.9,0,0,1,.8-1c.33-.06.66-.15,1-.24A.88.88,0,0,0,4.6,5.88C3.6,4.2,3.47,4.47,5,3l.68-.68c.91-.91,1-.92,2-.27.17.11.34.22.52.32a.9.9,0,0,0,1.32-.54c.22-.63.1-1.4.78-1.83Zm4.57,15c-.25-.41-.49-.77-.68-1.15a1,1,0,0,1-.16-.64,6.62,6.62,0,0,1,.79-1.87c.22-.3.79-.4,1.23-.49s.75-.34.66-.88a2,2,0,0,1,0-.54c0-.37-.1-.59-.47-.61a1.92,1.92,0,0,1-1.93-1.67c0-.11-.13-.21-.13-.31a2.68,2.68,0,0,1,.07-1.14c.63-1.21.66-1.19-.36-2.14l-.24-.19c-.86.48-1.56,1.05-2.79.55s-1.23-1.48-1.56-2.36H11.16c-.23,1-.4,1.84-1.59,2.37S7.66,3.73,6.93,3.4L5.62,4.59c.22.36.46.72.65,1.11a1.29,1.29,0,0,1,.17.71A2.58,2.58,0,0,1,4.32,8.78c-.18.05-.49.15-.5.26a3.76,3.76,0,0,0,0,1.42c.06.2.55.33.86.39a1.72,1.72,0,0,1,1.29,1,2.36,2.36,0,0,1-.3,2.93.26.26,0,0,0,0,.15l1.19,1.23c.84-.47,1.53-1.06,2.76-.54s1.28,1.43,1.57,2.34h1.72c.29-.94.35-1.83,1.56-2.33s1.93.06,2.76.54Z"/><path class="cls-1" d="M21,33.49V30.74c-1.57,0-3.1-.09-4.62,0a2.08,2.08,0,0,0-1.82,2.29c0,2.24,0,4.49,0,6.73V59.86c0,.23.07.5,0,.67s-.44.63-.66.62-.58-.32-.79-.57,0-.39,0-.6V33.18a3.76,3.76,0,0,1,4-4h4V28.4c0-3.09,0-6.18,0-9.28a1.44,1.44,0,0,1,.82-1.42Q28.15,14,34.39,10.3a1.35,1.35,0,0,1,1.57,0q6.3,3.77,12.64,7.47a1.31,1.31,0,0,1,.71,1.29c0,3.09,0,6.18,0,9.27v.83h4.23a3.75,3.75,0,0,1,3.7,3.06,4.4,4.4,0,0,1,.07.89V60c0,.2.06.48,0,.6s-.51.53-.76.52-.51-.36-.67-.62,0-.44,0-.67V33.41c0-1.93-.82-2.74-2.77-2.74H49.35v2.87h2c1.33,0,1.47.14,1.47,1.44V59.09c0,1-.24,1.22-1.22,1.22H18.73c-1,0-1.23-.23-1.23-1.2V34.72c0-.95.23-1.18,1.17-1.18H20.8Zm-1.9,1.6V58.74H51.25V35.08a5.81,5.81,0,0,0-3.51.64c-3.89,2.4-7.86,4.67-11.78,7a1.35,1.35,0,0,1-1.58,0c-3.94-2.36-7.93-4.65-11.84-7A5.66,5.66,0,0,0,19.11,35.09Zm4.23-16.47c.15.11.24.18.34.24,3.69,2.29,7.38,4.57,11.06,6.88.39.25.61.11.91-.08L46.51,19c.16-.1.3-.22.49-.36-3.86-2.29-7.65-4.54-11.46-6.77a.88.88,0,0,0-.73,0C31,14.08,27.21,16.33,23.34,18.62Zm24.38,1.45c-.17.08-.27.11-.37.17-3.7,2.28-7.4,4.55-11.08,6.85a1,1,0,0,0-.37.78c0,4.12,0,8.24,0,12.36a6.18,6.18,0,0,0,.06.66c.27-.15.47-.24.66-.36,3.51-2.07,7-4.15,10.52-6.2a1,1,0,0,0,.58-1c0-4.17,0-8.34,0-12.5C47.75,20.58,47.73,20.36,47.72,20.07ZM34.34,40.91c0-.24,0-.35,0-.47,0-4.23,0-8.47,0-12.7a1,1,0,0,0-.46-.72c-3.56-2.24-7.14-4.45-10.72-6.67a4,4,0,0,0-.51-.25,1.62,1.62,0,0,0-.06.19c0,4.42,0,8.84,0,13.26a1,1,0,0,0,.49.7c2.25,1.36,4.52,2.69,6.78,4Z"/><path class="cls-1" d="M35.18,63.14H58.33c1.32,0,1.46.13,1.44,1.46a17,17,0,0,1-.14,2.86,3.59,3.59,0,0,1-3.6,2.9H14.33a3.75,3.75,0,0,1-3.74-3.7c0-.85,0-1.7,0-2.54s.25-.94.95-1H35.18ZM12.1,64.72v1.36c0,1.94.83,2.78,2.74,2.78H56.13a2.12,2.12,0,0,0,2-1.55,21.55,21.55,0,0,0,.21-2.58Z"/><path class="cls-1" d="M0,42.1V27.54c0-1.07.18-1.26,1.22-1.26H8.91c1,0,1.22.24,1.22,1.21q0,14.6,0,29.19c0,1-.2,1.2-1.21,1.2H1.16c-1,0-1.16-.16-1.16-1.15ZM1.55,27.87V32.6c.4,0,.77,0,1.13,0s.86.29.84.8-.35.72-.83.73H1.55v3.24H3.7c.54,0,.93.21.93.77s-.41.76-.95.76H1.54v3.2H2.72a.75.75,0,0,1,.8.77c0,.48-.32.74-.8.76H1.56v3.24c.74,0,1.42,0,2.1,0s1,.17,1,.73-.43.8-1,.8H1.55v3.2c.41,0,.77,0,1.14,0s.85.29.83.8-.35.72-.83.72H1.55v3.24h7V27.87Z"/><path class="cls-1" d="M64.21,38.53v-3c0-.54.15-1,.75-1s.79.36.8,1.05c0,2,0,3.93,0,5.9,0,.52-.13,1-.78,1s-.77-.47-.77-1Z"/><path class="cls-1" d="M64.23,46.54c0-.28-.1-.61,0-.81a1.39,1.39,0,0,1,.74-.64c.46-.1.72.26.75.7a5.37,5.37,0,0,1,0,1.5A1.2,1.2,0,0,1,65,48c-.46.1-.74-.28-.79-.75a6.26,6.26,0,0,1,0-.75Z"/><path class="cls-1" d="M58.35,14a4.27,4.27,0,1,1,4.27-4.27A4.29,4.29,0,0,1,58.35,14ZM55.6,9.79a2.73,2.73,0,1,0,5.46,0,2.73,2.73,0,1,0-5.46,0Z"/><path class="cls-1" d="M12.05,14A4.27,4.27,0,1,1,12,5.5,4.27,4.27,0,1,1,12.05,14Zm2.71-4.27a2.73,2.73,0,1,0-5.46,0,2.73,2.73,0,1,0,5.46,0Z"/><path class="cls-1" d="M23.55,46.16v4c0,.7-.31,1.11-.79,1s-.76-.49-.75-1v-8c0-.72.27-1.06.8-1s.74.5.74,1Z"/><path class="cls-1" d="M23.53,54.39c0,.23.08.51,0,.67s-.45.66-.69.67a1,1,0,0,1-.75-.6,3,3,0,0,1,0-1.49,1,1,0,0,1,.76-.59c.24,0,.52.39.69.66S23.53,54.16,23.53,54.39Z"/><path class="cls-1" d="M45.68,27.35c0,.66,0,1.32,0,2,0,.49-.23.86-.76.87s-.77-.37-.78-.86c0-1.4,0-2.79,0-4.18,0-.49.25-.85.79-.83s.72.35.73.82C45.69,25.89,45.68,26.62,45.68,27.35Z"/><path class="cls-1" d="M45.88,32.49c-.25.43-.36.86-.64,1.07a1,1,0,0,1-.87-.17,5.33,5.33,0,0,1,0-1.69,1,1,0,0,1,.84-.25A3.63,3.63,0,0,1,45.88,32.49Z"/><path class="cls-1" d="M25.94,27c0,.64,0,1.28,0,1.92s-.19,1-.79,1-.76-.42-.76-.94c0-1.35,0-2.7,0-4,0-.49.17-.87.73-.88s.79.38.8.89C26,25.64,25.94,26.32,25.94,27Z"/><path class="cls-1" d="M25.93,32.21a2.57,2.57,0,0,1,0,.48c-.1.46-.37.76-.86.68-.72-.11-.66-.7-.67-1.23s.07-1,.7-1.06.75.26.83.72a1.86,1.86,0,0,1,0,.41Z"/><path class="cls-1" d="M5.87,31.6a1,1,0,0,1-.88-1,.9.9,0,0,1,1-.84.87.87,0,0,1,.85.91A.93.93,0,0,1,5.87,31.6Z"/></g></g></svg>