<svg xmlns="http://www.w3.org/2000/svg" viewBox="0 0 67.1 67.11"><defs><style>.cls-1{fill:#fed700;}</style></defs><g id="Layer_2" data-name="Layer 2"><g id="Layer_1-2" data-name="Layer 1"><path class="cls-1" d="M67.1,19.65c-1.65,1.68-3.29,3.37-5,5a.93.93,0,0,1-1.37,0q-2.37-2.3-4.7-4.65a1,1,0,0,1,0-1.47c.41-.43.84-.83,1.26-1.24a28.53,28.53,0,0,0-33.26-.57c1,2.31.84,4.52-1,6.36s-4,2-6.33,1C10.27,33,9.51,47,17.35,57.46c.38-.44.73-.88,1.13-1.28a1.1,1.1,0,0,1,1.72,0c1.45,1.45,2.9,2.91,4.33,4.37a1.09,1.09,0,0,1,0,1.76c-1.43,1.44-2.86,2.88-4.31,4.31a1.07,1.07,0,0,1-1.75,0c-1.46-1.44-2.91-2.9-4.36-4.35a1.08,1.08,0,0,1,0-1.76c.54-.54,1.11-1,1.66-1.58A30.88,30.88,0,0,1,12,28.33l-.16-.08c-.79.8-1.57,1.62-2.37,2.42-.95,1-1.9,1.92-2.88,2.86a.81.81,0,0,0-.27.95,3.19,3.19,0,0,1-2.2,4,3.19,3.19,0,0,1-4-2.33A3,3,0,0,1,1,33.1a3.2,3.2,0,0,1,3.2-.82.92.92,0,0,0,.74-.09c3.29-3.28,6.57-6.58,9.88-9.9-1.39-2.61-1.19-5.05,1.09-7.11a5.29,5.29,0,0,1,6.44-.4c.13-.12.28-.23.41-.37l9.35-9.35a.82.82,0,0,0,.26-1A3.15,3.15,0,0,1,34.16.23L34.61,0h1.58a1.48,1.48,0,0,0,.21.13,3.22,3.22,0,0,1,2.05,4.1,3.18,3.18,0,0,1-4.05,2,.69.69,0,0,0-.78.27l-4.82,4.8a6.61,6.61,0,0,1-.6.44l.14.14C39.21,7.74,49.41,9,59.05,15.71c.49-.53,1-1.08,1.51-1.6a1.08,1.08,0,0,1,1.8,0c1.59,1.58,3.16,3.18,4.74,4.77Zm-44.52-.33A3.26,3.26,0,0,0,19.32,16a3.3,3.3,0,0,0-3.27,3.26,3.27,3.27,0,0,0,3.29,3.28A3.23,3.23,0,0,0,22.58,19.32ZM19.42,58.55l-2.91,2.92,2.79,2.82,2.93-2.93Zm45-39.28-2.9-2.9L58.58,19.3l2.89,2.92ZM36.49,3.18A1.09,1.09,0,1,0,35.4,4.32,1.1,1.1,0,0,0,36.49,3.18ZM3.22,34.3a1,1,0,0,0-1,1.05,1.1,1.1,0,0,0,1.11,1.06,1,1,0,0,0,1-1.08A1.09,1.09,0,0,0,3.22,34.3Z"/><path class="cls-1" d="M67.1,50.18,50.73,66.57c-.83.82-1.53.7-2-.36-1-2-2-4-3.06-6.06a1.59,1.59,0,0,0-.76-.71q-5.2-2-10.43-4a1.91,1.91,0,0,1-1.2-1.17Q28,41.09,22.7,27.94A1.52,1.52,0,0,1,23.11,26c1.07-1,2.09-2.05,3.11-3.09a1.27,1.27,0,0,1,1.53-.33Q41.09,28,54.44,33.27a1.65,1.65,0,0,1,1,1c1.34,3.5,2.67,7,4,10.48a1.73,1.73,0,0,0,.75.81c1.89,1,3.81,1.92,5.71,2.89a11.28,11.28,0,0,1,1.18.76ZM25.29,26.89c-.31.22-.56.43-.35,1C28.31,36.22,31.65,44.59,35,53a1.29,1.29,0,0,0,.64.64c3.24,1.27,6.49,2.51,9.74,3.78a.73.73,0,0,0,.9-.21q5.41-5.46,10.88-10.89a.75.75,0,0,0,.21-1q-1.86-4.77-3.68-9.57a1.33,1.33,0,0,0-.82-.83Q40.44,30,28,25c-.54-.22-.85-.16-1.07.27L40.42,38.72a6.19,6.19,0,1,1,.12,10.33A6,6,0,0,1,38,45.61a6.16,6.16,0,0,1,.8-5.23ZM59.16,47.5,47.51,59.14l2.48,5L64.09,50a.28.28,0,0,0-.09-.07ZM39.84,43.87a4.08,4.08,0,0,0,4,4.07A4.12,4.12,0,0,0,48,43.86a4.05,4.05,0,0,0-4-4A4,4,0,0,0,39.84,43.87Z"/></g></g></svg>